<svg xmlns="http://www.w3.org/2000/svg" viewBox="0 0 1620 1620" role="img" aria-label="Gloē">
  <title>Gloē</title>
  <g fill="#C89A8C" transform="translate(421.0 1180.0) scale(1 -1)">
    <path d="M397 -10Q322 -10 256.5 17.5Q191 45 141.5 95.0Q92 145 64.5 210.5Q37 276 37 352Q37 429 65.0 494.5Q93 560 143.0 609.5Q193 659 260.0 686.5Q327 714 405 714Q492 714 565.0 681.5Q638 649 686 590L594 498Q561 541 512.0 564.0Q463 587 404 587Q337 587 285.5 557.5Q234 528 205.0 475.5Q176 423 176 353Q176 283 204.5 229.5Q233 176 282.5 146.0Q332 116 396 116Q462 116 509.0 140.5Q556 165 581.0 212.5Q606 260 606 329L695 268L388 271V389H746V370Q746 244 701.0 159.5Q656 75 577.5 32.5Q499 -10 397 -10Z"/>
  </g>
</svg>
