<svg xmlns="http://www.w3.org/2000/svg" viewBox="-20 -1020 2715 1300" role="img" aria-label="Gloē">
  <title>Gloē</title>
  <g fill="currentColor" transform="scale(1 -1)">
    <path transform="translate(0 0)" d="M397 -10Q322 -10 256.5 17.5Q191 45 141.5 95.0Q92 145 64.5 210.5Q37 276 37 352Q37 429 65.0 494.5Q93 560 143.0 609.5Q193 659 260.0 686.5Q327 714 405 714Q492 714 565.0 681.5Q638 649 686 590L594 498Q561 541 512.0 564.0Q463 587 404 587Q337 587 285.5 557.5Q234 528 205.0 475.5Q176 423 176 353Q176 283 204.5 229.5Q233 176 282.5 146.0Q332 116 396 116Q462 116 509.0 140.5Q556 165 581.0 212.5Q606 260 606 329L695 268L388 271V389H746V370Q746 244 701.0 159.5Q656 75 577.5 32.5Q499 -10 397 -10Z"/>
<path transform="translate(958 0)" d="M58 0V723H189V0Z"/>
<path transform="translate(1385 0)" d="M285 -10Q212 -10 153.5 23.5Q95 57 60.5 114.5Q26 172 26 243Q26 314 60.0 370.5Q94 427 153.0 460.5Q212 494 284 494Q358 494 416.5 460.5Q475 427 509.0 370.5Q543 314 543 243Q543 172 509.0 114.5Q475 57 416.5 23.5Q358 -10 285 -10ZM284 112Q321 112 349.5 128.5Q378 145 393.5 174.5Q409 204 409 242Q409 280 393.0 309.0Q377 338 349.0 354.5Q321 371 284 371Q248 371 220.0 354.5Q192 338 176.0 309.0Q160 280 160 242Q160 204 176.0 174.5Q192 145 220.0 128.5Q248 112 284 112Z"/>
<path transform="translate(2134 0)" d="M289 -10Q213 -10 154.0 22.5Q95 55 60.5 112.0Q26 169 26 242Q26 314 59.5 370.5Q93 427 151.0 460.5Q209 494 280 494Q350 494 403.5 462.5Q457 431 487.5 376.5Q518 322 518 253Q518 240 516.5 226.5Q515 213 511 196L105 195V293L450 294L397 253Q395 296 381.5 325.0Q368 354 342.5 369.5Q317 385 280 385Q241 385 212.0 367.5Q183 350 167.5 318.5Q152 287 152 244Q152 200 168.5 167.5Q185 135 216.0 117.5Q247 100 288 100Q325 100 355.0 112.5Q385 125 407 150L484 73Q449 32 398.5 11.0Q348 -10 289 -10ZM90 679H470V577H90Z"/>
  </g>
</svg>
